<?xml version="1.0" standalone="no"?>
<!DOCTYPE svg PUBLIC "-//W3C//DTD SVG 20010904//EN"
 "http://www.w3.org/TR/2001/REC-SVG-20010904/DTD/svg10.dtd">
<svg version="1.0" xmlns="http://www.w3.org/2000/svg"
 width="500.000000pt" height="512.000000pt" viewBox="0 0 500.000000 512.000000"
 preserveAspectRatio="xMidYMid meet">
<metadata>
Created by potrace 1.16, written by Peter Selinger 2001-2019
</metadata>
<g transform="translate(0.000000,512.000000) scale(0.100000,-0.100000)"
fill="#000000" stroke="none">
<path d="M0 4928 c0 -105 3 -188 7 -185 3 4 12 2 19 -4 8 -6 25 -9 38 -5 18 4
29 20 47 71 12 36 26 65 31 65 11 0 10 -36 -1 -58 -5 -9 -15 -37 -21 -62 -9
-32 -28 -60 -66 -99 -59 -59 -64 -67 -35 -51 11 5 25 10 32 10 10 0 1 -9 -50
-47 -2 -2 -2 -6 1 -9 4 -3 17 2 31 11 14 8 30 14 37 13 11 -3 66 82 89 137 4
11 7 54 5 95 -1 41 -3 91 -3 111 -1 28 -6 38 -21 42 -11 3 -20 10 -20 17 0 6
5 8 10 5 15 -9 12 39 -4 72 -8 15 -17 36 -20 46 -3 11 -15 17 -32 17 -27 0
-27 0 -8 -22 l19 -23 -26 23 c-14 12 -33 22 -42 22 -14 0 -16 -21 -17 -192z"/>
<path d="M150 5110 c0 -5 -7 -10 -15 -10 -9 0 -12 -6 -8 -16 3 -8 12 -13 19
-10 8 3 19 -3 26 -13 7 -11 18 -17 26 -13 10 3 13 1 8 -6 -3 -6 4 -20 16 -32
19 -18 21 -22 8 -31 -12 -8 -11 -9 5 -7 19 3 29 -10 70 -101 19 -43 19 -57 1
-42 -11 9 -20 9 -35 2 -25 -14 -29 -14 -27 2 0 6 -3 12 -9 12 -16 0 -6 -197
11 -216 8 -8 14 -23 14 -32 0 -26 17 -20 29 11 l11 27 -5 -28 c-3 -16 -17 -46
-32 -68 -21 -33 -30 -38 -57 -36 -28 2 -31 -1 -31 -25 -1 -34 -7 -40 -68 -72
-65 -35 -84 -33 -79 6 1 3 -5 9 -13 12 -13 5 -15 -71 -15 -594 l0 -600 103 70
c56 39 244 166 417 282 425 285 617 416 666 453 22 16 53 39 68 50 67 48 75
56 70 73 -5 14 -4 14 4 3 8 -12 17 -9 49 16 21 16 97 67 168 113 72 45 157
102 189 127 46 34 65 43 84 38 16 -4 28 -1 33 7 14 22 23 -1 11 -27 -7 -14
-12 -42 -12 -61 0 -21 -9 -47 -20 -61 -25 -33 -19 -40 14 -17 15 9 29 15 31
12 5 -5 -18 -222 -36 -341 -10 -60 -9 -71 7 -88 9 -10 25 -19 34 -19 9 0 58
-13 110 -30 93 -30 371 -90 417 -90 13 0 59 -12 101 -26 47 -16 101 -27 138
-28 59 -1 64 1 92 33 16 19 35 51 41 72 13 44 51 308 51 357 l0 33 29 -20 c49
-35 83 -24 41 14 -28 25 -37 81 -16 104 9 10 16 32 16 50 0 25 -6 35 -31 49
-17 9 -81 47 -143 83 -61 36 -123 69 -137 72 -31 8 -279 247 -279 270 0 12 92
91 125 107 16 7 285 201 285 205 0 2 -54 3 -120 3 -88 0 -118 -3 -114 -11 5
-8 2 -7 -7 1 -9 9 -72 12 -237 12 l-223 0 6 -22 c6 -22 6 -22 -14 2 -11 14
-23 22 -27 18 -4 -4 -2 -13 3 -20 6 -7 13 -30 17 -50 4 -23 13 -38 21 -38 8 0
17 -11 21 -25 3 -14 10 -25 14 -25 4 0 13 -14 20 -30 9 -23 10 -33 1 -44 -9
-10 -9 -20 0 -40 7 -14 15 -26 19 -26 4 0 10 -8 13 -17 4 -10 13 -34 22 -53
l15 -35 -20 24 c-11 13 -20 28 -20 35 0 6 -11 24 -26 39 -14 15 -22 32 -19 37
3 6 -1 10 -9 10 -9 0 -18 11 -22 25 -3 14 -13 25 -21 25 -8 0 -11 5 -8 10 4 6
-1 23 -11 38 -10 15 -29 46 -41 69 -27 49 -65 93 -82 93 -8 0 -7 -7 3 -22 9
-12 16 -32 16 -45 0 -12 4 -25 10 -28 5 -3 10 -15 10 -26 0 -10 4 -19 9 -19 5
0 18 -15 30 -32 11 -18 26 -42 33 -53 7 -11 16 -22 19 -25 4 -3 21 -30 39 -60
18 -30 40 -63 48 -72 8 -10 11 -18 6 -18 -5 0 -2 -5 6 -11 13 -9 13 -10 0 -6
-8 2 -14 10 -12 16 1 6 -5 11 -13 11 -7 0 -18 7 -23 16 -5 9 -13 14 -17 12 -5
-1 -13 12 -17 30 -5 17 -10 32 -11 32 -6 0 1 -75 8 -92 8 -20 1 -34 -25 -48
-18 -10 -19 -9 -9 13 8 18 8 30 0 45 -14 27 -14 45 1 36 7 -5 8 -3 2 7 -4 8
-7 26 -5 42 3 33 -51 133 -57 104 -2 -10 5 -26 16 -35 20 -18 39 -92 24 -92
-17 0 -21 -42 -6 -64 12 -19 12 -25 -1 -42 -11 -15 -15 -16 -15 -4 0 11 -3 10
-11 -4 -9 -14 -8 -20 2 -27 11 -7 10 -11 -6 -23 -14 -10 -21 -11 -23 -3 -2 7
-6 19 -9 27 -3 8 -5 22 -4 31 1 8 -5 29 -14 45 -8 16 -15 34 -15 41 0 7 -6 16
-12 20 -7 4 -13 13 -14 18 -3 30 -19 54 -42 64 -17 8 -22 15 -14 20 8 5 3 25
-19 71 -17 36 -33 67 -37 70 -4 3 -15 22 -24 43 -14 29 -23 37 -44 37 -19 0
-25 -4 -20 -15 17 -42 16 -47 -4 -17 -12 17 -30 32 -40 32 -16 0 -18 -6 -14
-40 3 -22 19 -67 36 -100 17 -33 28 -63 25 -66 -3 -3 -23 32 -45 78 -22 45
-37 84 -32 86 4 2 6 12 3 22 -4 14 -14 20 -34 20 -22 0 -27 -4 -23 -17 5 -17
5 -17 -8 -1 -13 15 -48 17 -336 17 -302 1 -322 0 -322 -16 -1 -17 -1 -17 -11
0 -5 9 -19 17 -29 17 -21 0 -26 -10 -11 -25 12 -13 51 -84 51 -93 0 -10 -37
47 -56 86 -12 23 -23 32 -41 32 -21 0 -23 -3 -18 -22 l7 -23 -17 23 c-15 20
-24 22 -96 21 -60 -1 -79 -5 -79 -15 0 -8 7 -14 16 -14 10 0 14 -6 11 -15 -4
-8 -2 -17 3 -20 5 -3 14 -20 19 -38 l9 -32 1 34 c1 28 3 32 16 21 10 -8 13
-21 8 -39 l-6 -26 22 25 c20 24 21 25 36 6 8 -11 18 -17 21 -13 4 4 1 13 -6
22 -20 24 0 17 21 -7 l20 -23 -7 25 c-5 21 -4 23 7 12 14 -13 21 -112 9 -112
-5 0 -11 -7 -14 -16 -4 -12 -2 -15 9 -10 8 3 15 1 15 -4 0 -6 5 -10 11 -10 6
0 9 9 6 20 -3 11 -1 20 3 20 5 0 11 -8 13 -17 3 -11 5 -5 6 12 1 26 3 27 12
12 5 -9 8 -21 4 -26 -3 -5 0 -13 6 -17 8 -5 9 -3 4 7 -12 21 7 0 37 -42 15
-21 23 -41 19 -48 -6 -9 -11 -8 -21 4 -7 8 -20 15 -29 15 -14 0 -14 -2 -1 -10
9 -6 10 -10 3 -10 -6 0 -14 4 -17 9 -3 4 -19 11 -35 14 -16 3 -36 13 -45 22
-9 9 -16 12 -16 5 0 -6 -5 -8 -10 -5 -6 4 -8 10 -5 15 3 5 1 11 -4 14 -5 3
-11 -9 -13 -28 -3 -24 0 -32 9 -29 7 3 16 -2 19 -11 3 -9 12 -16 20 -16 20 0
39 -39 25 -53 -8 -8 -11 -6 -11 6 0 9 -14 24 -31 32 -52 27 -97 85 -52 68 13
-5 15 -3 8 13 -4 10 -13 38 -19 62 -6 23 -13 42 -16 42 -8 0 -4 -75 4 -88 7
-12 -3 -42 -13 -42 -4 0 -8 6 -9 13 -1 27 -12 58 -26 78 -8 12 -12 27 -10 34
3 8 -1 12 -11 12 -10 -1 -22 7 -29 18 -6 10 -17 25 -23 33 -7 7 -13 18 -13 23
0 11 -31 46 -37 42 -2 -2 -6 -3 -10 -3 -4 0 1 6 12 13 39 29 7 37 -156 37 -99
0 -159 -4 -159 -10z m2149 -362 c36 -53 120 -140 198 -205 32 -27 75 -66 97
-87 21 -20 59 -48 85 -61 105 -54 199 -133 126 -105 -36 14 -42 13 -20 -4 17
-12 18 -15 3 -29 -15 -15 -29 -15 -169 5 -97 13 -160 26 -171 36 -14 12 -20
12 -33 2 -8 -7 -15 -9 -15 -5 0 5 -3 5 -6 2 -4 -3 7 -22 25 -42 36 -42 43 -70
6 -31 -34 36 -37 33 -15 -16 35 -78 22 -158 -37 -228 -59 -68 -136 -95 -200
-68 -30 12 -38 15 -52 17 -15 2 -74 68 -87 98 -7 15 -13 21 -13 13 -1 -8 6
-28 14 -44 18 -33 5 -60 -17 -37 -11 10 -10 11 5 6 10 -4 17 -2 17 4 0 6 -4
11 -10 11 -5 0 -16 12 -25 28 -15 26 -16 26 -10 2 5 -21 4 -22 -5 -7 -7 11 -8
23 -2 33 5 9 7 36 4 59 -7 67 21 136 78 189 55 52 58 49 -67 67 l-83 11 0 42
c0 22 4 47 9 55 13 20 2 41 -27 52 l-25 10 21 15 c12 8 22 23 23 32 0 11 2 12
6 4 2 -6 9 -10 13 -7 14 9 0 34 -16 28 -8 -3 -14 0 -14 6 0 6 5 11 11 11 5 0
8 4 5 9 -4 5 3 7 14 4 11 -3 18 -8 16 -12 -3 -4 0 -13 5 -21 8 -13 11 -13 19
1 5 9 23 22 39 28 23 10 28 17 23 34 -5 19 -3 20 9 10 13 -10 24 -6 65 25 28
21 49 43 46 50 -2 7 2 10 11 6 9 -3 33 6 54 20 21 14 39 26 40 26 1 0 15 -19
32 -42z"/>
<path d="M2129 4287 c-54 -29 -99 -102 -99 -162 0 -58 30 -116 77 -148 81 -56
152 -58 223 -5 110 79 103 248 -14 319 -45 27 -130 26 -187 -4z"/>
<path d="M1710 5111 c0 -5 7 -14 15 -21 8 -7 15 -21 15 -32 0 -10 5 -16 10
-13 6 3 10 -2 10 -12 0 -21 58 -135 74 -145 6 -4 7 -8 2 -8 -5 0 -3 -6 3 -14
6 -7 18 -40 27 -72 8 -32 24 -67 36 -78 20 -18 20 -18 15 0 -3 10 -9 61 -12
112 -5 64 -12 95 -21 99 -7 2 -23 23 -34 46 -12 23 -28 46 -36 50 -8 5 -12 12
-9 17 3 5 -2 24 -11 41 -11 22 -18 28 -24 20 -5 -10 -9 -9 -13 3 -7 17 -47 23
-47 7z"/>
<path d="M4860 5079 c-46 -42 -114 -106 -300 -284 -313 -297 -381 -358 -408
-361 -25 -3 -50 20 -226 202 -109 113 -201 203 -204 200 -3 -3 1 -13 9 -23 12
-14 12 -15 0 -9 -10 6 -12 5 -7 -5 3 -8 9 -22 12 -31 9 -26 23 -22 16 4 -3 14
-2 19 7 14 6 -4 9 -11 6 -16 -3 -5 3 -13 12 -19 20 -11 20 -11 -17 -15 -14 -2
-65 -8 -115 -14 -49 -6 -119 -14 -155 -17 -118 -9 -280 -31 -287 -39 -5 -5 19
-6 52 -2 33 3 101 8 151 12 l91 6 58 -78 c33 -43 58 -87 58 -97 -1 -11 24 -54
56 -96 32 -42 111 -155 176 -251 65 -96 169 -247 230 -335 62 -88 138 -200
169 -250 31 -49 91 -142 134 -205 43 -63 145 -215 227 -337 81 -123 151 -223
156 -223 4 0 18 15 30 33 12 17 33 44 47 58 20 23 22 30 12 50 -10 22 -10 22
3 6 11 -14 17 -15 25 -5 8 10 -4 34 -46 92 -31 43 -62 87 -68 97 -6 10 -18 27
-26 36 -21 24 -58 103 -58 124 0 9 -7 22 -15 29 -8 7 -15 19 -15 26 0 8 -4 14
-8 14 -8 0 -42 53 -42 65 0 9 97 -115 148 -187 17 -25 32 -53 32 -61 0 -8 7
-17 15 -21 8 -3 15 -11 15 -17 0 -6 15 -28 33 -49 53 -62 68 -84 63 -97 -11
-29 22 1 47 43 28 46 33 59 19 50 -4 -2 -13 4 -20 15 -9 14 -9 19 -1 19 14 0
49 39 49 54 0 6 -4 5 -9 -3 -8 -12 -12 -12 -25 -2 -8 7 -18 22 -22 33 -3 11
-15 29 -25 39 -10 10 -19 30 -19 43 0 14 -4 27 -9 30 -5 4 -7 -4 -5 -16 3 -15
0 -12 -9 8 -8 18 -20 35 -26 38 -6 4 -30 35 -53 69 -23 34 -34 56 -25 48 17
-14 24 -3 9 15 -5 5 -19 27 -31 49 l-23 40 24 -26 c12 -14 40 -45 62 -70 42
-48 40 -42 -11 39 -45 69 -29 66 22 -4 22 -31 50 -68 63 -83 13 -14 30 -39 38
-54 13 -25 17 -27 31 -15 15 12 15 11 4 -10 -8 -16 -9 -26 -1 -35 6 -6 17 -21
25 -32 13 -18 14 -16 15 28 0 27 -4 46 -9 42 -5 -3 -12 4 -16 15 -4 11 -11 18
-16 15 -5 -4 -9 0 -9 8 0 8 -7 20 -15 27 -8 7 -15 21 -15 31 0 13 -5 17 -17
12 -10 -4 -14 -2 -10 4 4 6 2 17 -5 25 -15 16 -58 99 -58 112 0 5 19 -20 43
-55 52 -77 118 -169 121 -169 2 0 3 20 3 44 1 35 -2 43 -15 42 -12 -1 -16 6
-14 24 2 19 0 22 -8 10 -8 -12 -10 -13 -10 -1 0 8 -3 11 -6 8 -4 -3 -16 5 -26
19 -24 30 -16 44 10 21 10 -10 23 -17 28 -17 5 0 4 4 -2 8 -6 4 -14 18 -18 32
-6 21 -2 19 28 -15 34 -39 36 -39 36 -15 0 15 -5 31 -12 38 -9 9 -9 12 3 12
11 0 12 2 0 9 -10 6 -11 13 -2 29 13 25 12 140 -1 148 -6 4 -6 9 1 13 8 5 11
82 9 265 l-3 258 -145 -242 c-80 -133 -157 -255 -172 -271 -16 -16 -28 -35
-28 -42 0 -7 -22 -44 -49 -84 -27 -39 -51 -77 -54 -85 -6 -17 -13 -9 -21 25
-4 19 -3 26 4 22 16 -10 24 23 10 40 -10 12 -9 15 5 15 12 0 15 5 11 16 -5 12
-2 15 10 10 13 -5 14 -3 7 6 -6 7 -13 27 -17 43 -6 28 -5 29 9 11 8 -11 15
-15 15 -9 0 12 -19 28 -34 28 -5 0 -10 12 -12 28 -4 37 8 34 42 -10 15 -21 29
-40 31 -42 2 -2 6 -2 9 2 3 3 -6 18 -20 34 -14 15 -26 31 -26 35 0 18 -144
197 -151 187 -4 -7 -9 -8 -13 -1 -3 6 0 12 6 15 10 3 10 7 -1 20 -7 9 -18 14
-25 10 -6 -3 -8 -3 -4 2 8 8 -14 56 -44 95 -10 14 -34 50 -53 80 l-35 55 36
-40 c43 -48 124 -153 124 -161 0 -11 28 -33 34 -26 4 3 4 -1 0 -11 -3 -10 -1
-17 5 -17 6 0 11 -7 11 -15 0 -7 6 -18 13 -22 6 -4 43 -54 81 -111 38 -57 70
-102 71 -100 8 9 -13 83 -23 81 -7 -2 -12 4 -12 12 0 8 -9 30 -20 50 -11 19
-18 35 -16 35 3 0 -9 15 -26 33 -53 57 -58 64 -58 74 0 6 -7 13 -15 17 -8 3
-15 12 -15 21 0 8 -4 15 -10 15 -5 0 -10 5 -10 11 0 6 -9 22 -20 36 -11 14
-20 32 -20 40 0 21 88 -94 109 -143 5 -12 16 -24 24 -27 9 -3 17 -16 19 -29 2
-15 9 -23 21 -22 9 1 17 -3 17 -10 0 -6 21 -33 46 -61 36 -39 44 -44 38 -25
-4 14 -8 41 -8 60 -1 26 -6 36 -20 38 -19 4 -24 8 -59 49 -19 21 -18 22 3 16
12 -3 27 -17 33 -30 6 -13 15 -22 21 -20 12 4 46 -29 46 -45 0 -9 3 -9 11 -1
9 9 9 19 0 42 -7 16 -10 40 -6 52 6 18 4 21 -9 16 -14 -6 -16 -3 -10 16 9 31
14 34 24 17 4 -8 20 -28 35 -45 l27 -30 -27 49 c-14 26 -23 51 -20 54 3 4 10
0 15 -8 8 -12 10 -9 10 10 0 14 -9 39 -19 57 -12 19 -16 33 -9 35 6 2 -2 18
-16 35 -32 38 -61 103 -46 103 6 0 13 -14 17 -31 4 -20 10 -28 19 -25 8 3 14
-1 14 -9 0 -8 9 -24 20 -35 11 -11 20 -15 20 -9 0 5 4 8 10 4 5 -3 7 -12 3
-20 -3 -9 1 -16 8 -16 8 -1 19 -2 25 -3 7 0 22 -12 34 -26 18 -21 21 -22 15
-5 -6 18 -5 18 17 -2 l23 -22 23 33 c19 28 21 38 12 61 -10 25 -9 27 5 15 14
-12 18 -11 26 1 13 20 11 36 -7 64 -9 13 -14 30 -11 37 4 9 6 8 6 -3 1 -20 29
-45 38 -35 4 4 1 11 -7 16 -9 6 -10 10 -3 10 23 0 18 35 -10 61 -24 23 -25 28
-12 39 12 10 15 10 15 -2 0 -8 14 -27 30 -41 17 -15 30 -25 30 -23 0 9 -44 81
-58 95 -8 8 -25 32 -39 54 -19 31 -22 41 -12 48 10 6 9 13 -6 31 -11 13 -24
26 -30 30 -5 4 -7 10 -4 13 4 3 19 -11 35 -32 15 -21 34 -44 40 -50 7 -7 14
-18 17 -25 2 -7 8 -10 12 -6 4 4 -14 36 -40 72 -26 36 -43 66 -37 66 5 0 35
-37 68 -82 41 -57 60 -77 62 -64 2 9 -8 35 -22 56 -33 50 -33 65 -1 25 l25
-30 0 37 c0 20 -6 43 -14 50 -7 8 -21 30 -30 48 l-17 35 25 -27 c14 -16 27
-28 29 -28 2 0 5 88 6 195 l2 195 -48 0 c-42 0 -53 -5 -93 -41z"/>
<path d="M2995 3070 c5 -16 2 -20 -20 -20 -72 0 -151 -70 -141 -124 9 -44 33
-75 63 -82 17 -5 63 2 120 16 86 22 93 22 117 7 75 -50 11 -157 -96 -159 -31
0 -46 5 -59 21 -19 23 -29 27 -29 10 0 -19 61 -100 71 -93 6 4 6 11 -2 20 -9
11 -6 14 17 14 43 1 108 34 132 68 29 41 28 83 -4 121 -21 26 -33 31 -67 31
-23 0 -64 -7 -91 -15 -70 -21 -123 -20 -136 4 -18 35 -11 71 19 102 25 25 37
29 84 29 45 0 57 -4 70 -22 8 -13 18 -20 23 -16 4 5 -8 30 -27 58 -35 51 -55
65 -44 30z"/>
<path d="M2563 2799 c-57 -38 -103 -74 -103 -81 0 -19 41 -78 51 -72 6 3 1 19
-10 38 l-20 32 45 28 c25 16 46 27 48 25 18 -21 176 -261 176 -268 0 -5 -7
-14 -15 -21 -8 -7 -12 -16 -10 -21 8 -11 95 43 95 58 0 16 -16 17 -25 2 -4 -5
-11 -9 -16 -7 -4 2 -49 64 -99 138 l-90 134 28 23 c44 36 59 37 86 6 13 -15
27 -25 30 -22 8 8 -43 79 -57 78 -7 0 -58 -32 -114 -70z"/>
<path d="M4969 2813 c-20 -5 -30 -66 -18 -101 6 -15 4 -32 -5 -50 -7 -15 -13
-46 -13 -69 0 -24 -5 -48 -11 -55 -5 -7 -13 -41 -17 -75 -4 -34 -13 -67 -21
-74 -21 -17 -17 -27 16 -44 16 -8 46 -29 65 -46 l35 -31 0 36 c0 20 -6 47 -14
59 -22 33 -39 141 -33 200 3 29 13 72 23 97 18 49 31 161 17 159 -4 -1 -15 -3
-24 -6z"/>
<path d="M2317 2635 c-53 -36 -97 -70 -97 -75 0 -13 7 -13 30 0 17 9 30 -5
110 -126 88 -131 91 -136 74 -155 -35 -39 -4 -29 82 27 132 84 128 79 97 125
-14 21 -30 39 -34 39 -13 0 -11 -14 6 -36 8 -10 15 -24 15 -31 0 -11 -110 -93
-124 -93 -6 0 -86 116 -86 124 0 3 20 18 43 35 41 28 45 29 60 14 9 -9 20 -14
23 -10 8 8 -43 87 -56 87 -13 0 -13 -13 1 -27 7 -7 2 -15 -15 -27 -83 -53 -70
-54 -116 14 -23 34 -38 65 -34 70 5 4 34 24 64 44 l55 37 23 -27 c13 -14 26
-24 29 -21 6 7 -35 77 -45 77 -4 0 -51 -29 -105 -65z"/>
<path d="M0 2263 l0 -372 122 -66 c66 -37 160 -88 207 -113 47 -24 93 -51 102
-58 8 -8 62 -38 120 -67 57 -30 229 -120 381 -200 152 -81 283 -147 290 -147
12 0 -17 17 -287 160 -66 34 -137 72 -159 84 -39 21 -48 34 -315 444 -84 130
-313 481 -412 632 l-49 75 0 -372z"/>
<path d="M2038 2449 c-27 -17 -48 -35 -48 -40 0 -13 24 -11 37 2 8 8 36 -25
102 -125 50 -74 91 -140 91 -145 0 -5 -7 -11 -15 -15 -8 -3 -15 -10 -15 -17 0
-6 7 -8 16 -5 26 10 204 128 204 135 0 3 -14 22 -29 41 -35 41 -53 34 -22 -8
l21 -30 -63 -41 c-35 -23 -66 -41 -70 -41 -4 0 -48 61 -98 136 -89 133 -90
136 -70 151 21 14 28 33 14 33 -5 0 -29 -14 -55 -31z"/>
<path d="M3058 2350 c-106 -32 -146 -135 -94 -245 71 -154 250 -176 316 -39
17 34 21 55 16 86 -20 127 -141 228 -238 198z m100 -34 c66 -34 112 -111 112
-184 0 -83 -63 -139 -147 -129 -58 6 -106 45 -138 112 -42 86 -23 162 50 199
37 20 88 20 123 2z"/>
<path d="M4698 2337 c-13 -13 -35 -31 -50 -40 -16 -10 -28 -26 -28 -38 0 -22
44 -114 59 -123 5 -3 32 2 61 11 51 16 53 16 67 -3 36 -50 167 -184 179 -184
11 0 14 21 14 95 0 57 -4 95 -10 95 -5 0 -10 8 -10 18 0 10 -11 29 -25 42 -25
24 -26 24 -55 6 l-30 -17 -27 32 c-15 18 -28 37 -29 43 -3 27 -5 30 -12 19 -5
-8 -19 -3 -46 18 -22 16 -34 29 -28 29 7 0 12 5 12 10 0 17 -18 11 -42 -13z"/>
<path d="M2804 2170 c5 -24 3 -26 -35 -27 -44 -2 -100 -37 -120 -75 -21 -39
-13 -115 17 -176 54 -105 167 -152 244 -100 19 13 41 37 50 53 8 17 16 32 17
34 2 2 9 -2 17 -8 32 -27 22 10 -20 73 -42 62 -50 96 -24 96 5 0 10 5 10 10 0
17 -24 11 -63 -15 -42 -29 -49 -48 -13 -39 35 8 81 -60 71 -105 -9 -44 -41
-79 -82 -90 -50 -14 -86 -4 -134 37 -124 106 -96 282 46 282 22 0 43 -8 56
-21 46 -46 32 9 -17 67 l-25 29 5 -25z"/>
<path d="M3817 2088 c-26 -18 -47 -36 -47 -40 0 -12 25 -9 38 4 6 6 13 10 15
7 14 -15 169 -253 174 -265 3 -8 -3 -21 -13 -29 -11 -7 -16 -17 -12 -21 4 -4
51 22 104 57 53 35 101 67 106 70 13 8 -33 79 -50 79 -10 0 -8 -9 7 -33 l20
-33 -65 -43 c-36 -24 -69 -39 -74 -35 -4 5 -46 67 -93 138 -83 124 -85 130
-67 143 20 14 27 33 12 33 -4 0 -29 -15 -55 -32z"/>
<path d="M3630 1964 c-52 -36 -96 -70 -98 -75 -2 -5 -9 -9 -16 -9 -16 0 -86
-49 -86 -61 0 -5 11 -7 23 -3 23 5 25 0 64 -148 22 -84 39 -154 38 -156 -6 -7
-254 183 -255 195 0 6 5 13 12 15 6 2 8 10 4 16 -5 9 -20 3 -52 -20 -53 -38
-63 -64 -13 -38 16 9 41 -6 166 -101 81 -61 153 -114 160 -116 20 -8 17 8 -33
200 -46 175 -46 178 -27 195 59 52 54 54 153 -93 49 -74 90 -137 90 -141 0 -4
-8 -13 -17 -20 -10 -7 -15 -16 -11 -20 4 -4 51 22 104 57 53 35 101 67 106 70
13 8 -33 79 -50 79 -10 0 -8 -9 7 -33 l20 -34 -63 -41 c-34 -23 -65 -42 -69
-42 -6 0 -87 114 -87 123 0 2 19 17 42 32 35 23 45 26 61 16 30 -19 31 -6 3
38 -29 45 -50 54 -41 18 5 -19 -1 -28 -34 -50 -22 -15 -43 -27 -45 -27 -7 0
-89 121 -84 124 1 2 31 22 65 44 l62 42 22 -32 c13 -17 25 -26 27 -20 4 13
-35 82 -46 82 -4 -1 -50 -30 -102 -66z"/>
<path d="M3100 1618 c0 -2 22 -87 49 -190 l49 -188 -33 -20 c-18 -11 -35 -20
-39 -20 -4 0 -40 14 -81 31 l-75 32 25 29 c29 34 31 57 9 101 -43 85 -93 88
-209 11 -46 -31 -82 -61 -79 -65 3 -5 14 -4 25 2 12 6 23 9 25 6 2 -2 44 -64
93 -137 90 -132 90 -133 69 -150 -12 -9 -17 -19 -12 -23 13 -7 93 44 94 61 0
14 -16 16 -25 2 -11 -18 -19 -11 -59 50 -37 58 -38 61 -20 75 33 25 43 23 131
-16 60 -27 64 -31 48 -43 -11 -8 -14 -15 -8 -19 11 -7 183 102 183 116 0 5
-10 7 -22 5 -18 -3 -23 4 -34 47 -7 27 -9 52 -5 55 120 80 118 80 180 29 23
-19 23 -20 6 -33 -36 -26 2 -24 43 2 47 30 55 47 16 38 -21 -6 -48 11 -171
104 -121 91 -174 124 -173 108z m-137 -206 c19 -20 27 -39 27 -64 0 -32 -6
-40 -47 -70 -27 -19 -53 -37 -59 -41 -15 -9 -98 118 -89 134 13 19 98 69 120
69 12 0 33 -13 48 -28z"/>
<path d="M1440 1318 c-23 -25 -26 -44 -7 -52 9 -5 9 -7 0 -12 -8 -3 7 -24 40
-54 l52 -49 -39 -40 c-22 -22 -38 -43 -35 -45 16 -16 137 -36 219 -36 120 0
227 -22 255 -52 11 -12 13 -17 5 -11 -30 21 -60 22 -79 2 -18 -19 -71 -23 -71
-5 0 5 -8 2 -18 -7 -10 -10 -23 -17 -29 -17 -6 0 -13 -6 -15 -12 -3 -7 -18
-13 -34 -14 -16 -1 -63 -5 -104 -9 -142 -15 -373 -14 -391 1 -20 18 -105 44
-142 44 -16 0 -44 7 -63 16 -22 10 -44 14 -62 9 -15 -3 -54 -10 -87 -15 -33
-4 -82 -13 -110 -20 -27 -6 -63 -13 -80 -15 -58 -8 -406 -98 -440 -114 -27
-14 -89 -28 -153 -36 l-52 -7 0 -224 c0 -207 1 -225 19 -243 13 -13 22 -16 29
-9 6 6 12 6 16 -1 10 -16 36 -13 36 4 0 8 -3 14 -7 13 -13 -2 -43 14 -43 23 0
5 12 7 28 4 25 -6 26 -5 9 8 -17 14 -16 16 14 22 21 5 34 3 39 -5 4 -7 13 -9
20 -5 9 5 11 4 6 -3 -5 -8 3 -12 23 -12 17 0 31 5 31 10 0 6 -6 10 -14 10 -10
0 -14 10 -14 30 1 23 5 29 15 25 10 -3 19 5 26 25 6 16 15 30 20 30 4 0 6 4 3
9 -8 13 4 42 15 35 5 -3 18 1 30 9 15 11 17 16 7 21 -7 3 -3 3 9 0 13 -3 23
-1 23 4 0 16 30 23 50 12 15 -8 20 -6 25 11 5 15 13 20 30 17 16 -3 22 0 21
11 -1 13 9 16 47 15 36 -1 47 2 43 11 -3 10 3 12 22 10 15 -2 21 -2 15 1 -23
10 -14 22 15 19 16 -1 33 -4 38 -7 16 -8 64 -8 64 0 0 4 -6 14 -12 22 -11 12
-10 12 3 2 9 -6 19 -9 22 -5 4 3 7 1 7 -6 0 -8 7 -11 15 -7 8 3 15 1 15 -3 0
-5 7 -12 16 -15 15 -6 15 -4 0 19 -14 22 -15 25 -1 25 8 0 15 -4 15 -10 0 -5
14 -7 30 -5 17 2 30 -1 30 -6 0 -5 11 -14 25 -19 20 -8 25 -16 25 -45 0 -33 1
-34 25 -25 28 11 35 4 31 -33 -2 -15 0 -30 4 -32 4 -2 5 -16 3 -30 -3 -13 -2
-33 2 -42 6 -17 7 -17 20 1 13 17 14 2 13 -113 0 -83 3 -136 10 -143 8 -8 12
-4 16 13 7 35 18 172 21 269 3 97 11 122 34 118 18 -4 20 -45 6 -131 -5 -36
-3 -56 10 -82 11 -25 14 -48 10 -78 -4 -24 -2 -78 4 -121 9 -66 9 -83 -5 -111
-17 -37 -32 -46 -62 -38 -15 4 -21 16 -24 54 -3 27 -8 52 -11 56 -4 3 -23 -7
-44 -22 -21 -16 -39 -30 -41 -31 -2 -1 -5 -18 -6 -38 l-3 -36 408 0 408 0
-200 303 c-269 405 -285 431 -271 462 l11 24 83 -28 c72 -25 104 -29 245 -35
134 -6 167 -4 198 8 40 17 100 13 145 -9 31 -15 70 -3 70 22 1 48 16 44 116
-30 97 -73 221 -144 231 -133 15 15 -75 110 -195 206 -82 66 -91 76 -76 87 15
11 16 22 7 95 -8 70 -16 94 -52 151 -22 37 -41 74 -41 82 0 8 -7 15 -16 15
-12 0 -15 -6 -11 -21 6 -21 4 -22 -91 -16 -53 3 -110 10 -125 16 -16 6 -48 11
-72 11 -44 0 -66 13 -175 102 -42 34 -44 34 -70 6z m-205 -857 c3 -11 3 -39 0
-63 -3 -23 -7 -72 -9 -108 -3 -83 -40 -205 -59 -193 -21 13 7 285 38 371 7 18
23 15 30 -7z"/>
<path d="M2580 1260 c-58 -38 -109 -71 -115 -73 -12 -4 41 -87 55 -87 15 0 12
9 -11 42 -12 16 -20 31 -18 32 2 2 23 15 46 30 l43 26 91 -136 c87 -131 90
-136 73 -155 -9 -10 -14 -22 -11 -25 9 -9 97 49 97 64 0 14 -16 16 -25 2 -3
-5 -10 -10 -15 -10 -8 0 -190 262 -190 273 0 3 19 17 42 32 l42 28 22 -29 c13
-15 26 -25 30 -22 7 7 -33 78 -44 78 -4 0 -54 -32 -112 -70z"/>
<path d="M3807 969 c-95 -22 -147 -80 -171 -191 -9 -40 12 -122 42 -167 55
-80 232 -190 365 -224 55 -15 58 -15 72 6 11 16 15 49 15 122 0 183 -33 306
-102 381 -56 61 -145 90 -221 73z m116 -124 c69 -34 97 -124 58 -188 -66 -107
-234 -52 -234 76 0 53 15 83 56 107 39 24 78 25 120 5z"/>
<path d="M825 579 c-4 -5 7 -15 24 -22 17 -6 31 -16 31 -22 0 -15 -43 -55 -58
-55 -7 0 -12 -4 -12 -9 0 -5 -16 -19 -36 -30 -49 -29 -37 -38 15 -12 22 12 45
21 51 21 19 0 10 -30 -23 -83 -18 -29 -41 -84 -50 -123 -21 -90 -21 -95 1 -87
45 18 72 80 97 223 9 52 21 110 27 127 10 35 4 45 -39 70 -15 9 -24 9 -28 2z"/>
<path d="M4265 407 c-132 -71 -354 -237 -318 -237 26 0 283 168 358 234 50 44
37 45 -40 3z"/>
</g>
</svg>
