<?xml version="1.0" encoding="utf-8"?>
<!-- Generator: Adobe Illustrator 22.0.1, SVG Export Plug-In . SVG Version: 6.00 Build 0)  -->
<svg version="1.1" id="Layer_1" xmlns="http://www.w3.org/2000/svg" xmlns:xlink="http://www.w3.org/1999/xlink" x="0px" y="0px"
	 viewBox="0 0 231.4 30.5" style="enable-background:new 0 0 231.4 30.5;" xml:space="preserve">
<style type="text/css">
	.st0{fill-rule:evenodd;clip-rule:evenodd;fill:#023F88;}
</style>
<g>
	<path class="st0" d="M203.7,30v-3.7h4.7c0.3,0,0.4-0.1,0.7-0.7l1.5-3c0.1-0.4,0.6-1.1-0.1-1.3h-6.8V18h8.3c0.3,0,0.5-0.1,0.7-0.4
		l1.1-2.4c0.1-0.3-0.1-0.8-0.4-0.8h-9.7v-3.9h10.8c3.8,0,4.3,3.2,3.1,5.8l-3.5,7.6c-0.6,1.3-0.6,2.3,0.4,2.3h15.3
		c2.4,0.4,2.6,3.5,0.1,3.8L212.8,30c-0.6,0-1.1-0.4-1.5-1.3c-0.7,0.7-1.2,1.2-2.3,1.2H203.7z M203.7,10.5v3.9h-2.5
		c-2.4-0.1-2.2-3.6,0.5-3.9H203.7L203.7,10.5z M203.7,18h-5.1c-1.7,0-2.9,1.1-3.3,1.9l-2.2,4.9c-0.4,0.9-0.5,1.5-1.5,1.5h-22.8
		c-0.8,0-0.6-1.2-0.2-2l4.2-9.8h12.7c2.3-0.3,3-3,0.7-3.9h-11.9l1.5-3.5c1-2.2-2.2-3.6-3.2-1.3l-2,4.7h-5.8c-3,0-3,3.9-0.6,3.9h4.8
		l-4.3,10.1c-0.5,1.2-1.2,1.8-2.4,1.8h-17.7c-0.2,0-0.3-0.4-0.2-0.6c1-3.2,2.8-7.1-2.8-7.1h-11.3c-1.5,0-0.2-4.2,1.6-4.2h14.5
		c2.7,0,1.9-3.9,0.6-3.9h-15.3c-5.5,0-8.2,11.4-1.8,11.4h10.2c0.8,0.1,0.9,0,1.2,0.8c-0.2,1.4-0.4,2.1-1.4,3.2
		c-0.2,0.2-0.3,0.4-0.7,0.4h-28.3l0,0h-5.4c-1,0-1-1.1-0.4-2.3l3.5-7.7c1.2-2.6,0.7-5.7-3.1-5.7H94.4v3.9h9.7c0.3,0,0.5,0.5,0.4,0.8
		l-1.1,2.4c-0.2,0.3-0.4,0.4-0.7,0.4h-8.3v3.3h6.8c0.7,0.3,0.2,0.9,0.1,1.4l-1.5,3c-0.4,0.6-0.5,0.7-0.8,0.7h-4.6V30h5.2
		c1.1,0,1.5-0.6,2.2-1.2c0.5,0.9,1,1.2,1.6,1.2h36.2c0.8,0,1.7-0.6,2.1-1.3c0.8,0.9,1.2,1.3,1.7,1.3h19.6c1.3,0,1.2-0.5,2.1-1.3
		c0.5,0.5,0.7,1.3,1.8,1.3h24.7c1,0,1.7-0.6,2.3-1.3c0.4,0.9,1.3,1.3,1.9,1.3h7.7v-3.7h-5.5c-1,0-1.8-0.1-1.5-0.9l1.5-3.1
		c0.5-1.1,0.7-1,1.3-1h4.3V18z M47.6,26.3H51c1.8,0.1,2.1-0.2,2.8-0.8l-6.2-2.9v-3.9l8.6,4.2c0.9,0.4,1,0.1,1.3-0.3L65.7,3
		c0.6-1.3,1.6-2.7,3.2-2.7h17.7c2.8,0.6,1.7,3.7-0.5,3.7H69.7c-0.4,0-0.8,0.4-1,0.8L61,24c-0.2,1.5-0.2,2.3,1.3,2.3h19.6l0,0h0.3
		c1,0,1.1-0.6,1.5-1.5l2.2-4.8c0.4-0.9,1.6-1.9,3.3-1.9h5.2v3.3h-4.3c-0.6,0.1-0.9-0.1-1.3,1l-1.5,3.1c-0.3,0.6,0.6,0.9,1.5,0.9h5.6
		V30h-7.7c-0.6,0-1.5-0.4-1.9-1.3c-0.7,0.7-1.4,1.3-2.4,1.3L60,30c-0.9,0-1.6-0.8-2.4-1.3c-1.1,0.6-2.1,1.2-3.3,1.3h-6.8V26.3
		L47.6,26.3z M94.4,10.6h-2c-2.8,0.3-2.9,3.8-0.5,3.9h2.5V10.6z M42.2,21c-0.6,1.6-1,3-0.8,4.7c0,0.6,0.4,0.6,0.9,0.6h5.2V30h-6.1
		c-2.5,0-3.4-1.4-3.6-3.7c0-0.5-0.1-1-0.1-1.5v-0.6c0-2.2,0.6-4.2,2-6.2c1-1.4,2.6-2,4-1.3l3.8,1.8v3.9L44,20.8
		C43.2,20.5,42.9,20.6,42.2,21z"/>
	<g>
		<path class="st0" d="M21.5,5.8c-2.1,3.5-6.3,9.4-6.9,10.5c-0.5,1.1-0.5,2.3-0.1,3.4c0.3,0.6,0.5,1.2,1,1.7c0.4,0.4,1,0.7,1.5,1.3
			c0.3,0.3,1.5,1.4,2.2,2.5c0.7,1,1.4,1.9,1.4,1.9l-2.7,0.1l0-1.1c-0.6-0.7-2.8-2.3-3.9-3.1c-0.6-0.4-3-1.9-3.5-2.2
			C10,20.5,9,19.9,8.6,19.4c-0.3-0.3-1-1.1-1.3-1.5c-0.3-0.3-0.8-0.8-1.3-1.2c-0.5-0.4-1.1-0.8-1.4-1C4.2,15.4,3.4,15,3,14.6
			l-0.1-0.2c0.9-0.1,2,0.1,3.1,0.2c1.3,0.2,1.7,0.7,2.5,1.4l0.3,0.2c0-0.3-0.1-0.8,0-0.9c0-0.1,0.1-0.5,0.5-0.7L22,4.1l0.2,0.1
			C22,4.6,21.9,5,21.5,5.8z"/>
		<path class="st0" d="M15.8,2.4c7.1,0,12.8,5.8,12.8,12.9c0,7.1-5.7,12.9-12.8,12.9v2.4c8.4,0,15.3-6.9,15.3-15.3
			C31.1,6.9,24.2,0,15.8,0V2.4z M15.8,2.4L15.8,2.4V0l0,0C7.4,0,0.5,6.9,0.5,15.3c0,8.4,6.9,15.3,15.3,15.3l0,0v-2.4l0,0
			c-7.1,0-12.9-5.8-12.9-12.9C2.9,8.2,8.7,2.4,15.8,2.4z"/>
	</g>
</g>
</svg>
